<svg version="1.2" xmlns="http://www.w3.org/2000/svg" viewBox="0 0 752 753" width="752" height="753"><style>.a{opacity:.2;fill:#fff}</style><path class="a" d="m722.1 228.5l-491.3 495.7 2.7 1.1c2.4 1 4.9 1.5 7.4 1.5 5.2 0 10.3-2.1 14.1-5.9l463.9-468.1c5.6-5.7 7.4-14.2 4.3-21.6l-1.1-2.7m-24.3-46.9l-514.1 518.8 0.1 0.1c3.1 1.8 6.5 2.7 9.9 2.7 5 0 10-2 13.7-5.7l487.7-492.2c6.3-6.3 7.4-16 2.8-23.6l-0.1-0.1m-29.4-41.7l-526.7 531.4c3.9 3.1 7.9 6.1 11.9 9.1l524-528.8c-3-4-6.1-7.9-9.2-11.7m82.3 202.5l-405.8 409.6q5.5 0.4 11 0.7 0.5 0 1 0c5.2 0 10.2-2.1 13.9-5.9l375-378.4c4-3.9 6.1-9.4 5.8-15q-0.4-5.5-0.9-11m-21.4 164.5l-220.2 222.2c11.7-4.4 23-9.4 34.1-14.9 2-1 3.8-2.4 5.4-4l162.2-163.6c1.5-1.6 2.9-3.4 3.8-5.4 5.5-11.1 10.4-22.6 14.7-34.3m10.9-225.3l-456.2 460.4q3.1 0.7 6.3 1.5 2.1 0.5 4.3 0.5c5.3 0 10.4-2.2 14.2-6l427.7-431.6c4.8-4.8 6.9-11.9 5.3-18.5q-0.7-3.2-1.6-6.3m10.4 132.4l-334.2 337.2c6-0.6 12-1.5 17.9-2.4 4.2-0.7 8-2.7 11-5.7l297.5-300.1c2.9-3 4.9-6.9 5.5-11 0.9-6 1.7-12 2.3-18m-155.4-343.1l-523 527.7q4.4 6.1 9 11.9l526-530.7q-5.9-4.6-12-8.9m-266.1-67.5q-9.4 1.2-18.6 2.8c-4 0.7-7.7 2.7-10.6 5.6l-289.2 291.9c-2.9 2.9-4.9 6.6-5.6 10.6q-1.5 9.3-2.6 18.6l326.6-329.5m-95.7 25.1c-12.7 5.2-25.1 11.1-37.1 17.6-1.7 1-3.3 2.2-4.7 3.6l-144 145.2c-1.4 1.5-2.6 3.1-3.5 4.8-6.5 12.1-12.2 24.5-17.3 37.3l206.6-208.5m156.3-27.8c-5.2 0-10.2 2.2-13.9 5.9l-369.7 373c-3.8 3.9-6 9.2-5.7 14.7q0.2 5.8 0.7 11.5l400.8-404.4q-5.7-0.4-11.5-0.6-0.3-0.1-0.7-0.1m117.5 24.6c-5.3 0-10.4 2.1-14.2 5.9l-461.3 465.5c-5.6 5.6-7.4 13.9-4.5 21.2q0.7 1.5 1.3 3l488.7-493.1q-1.5-0.6-3-1.2c-2.3-0.9-4.7-1.3-7-1.3m47.7 23.2c-5.2 0-10.3 2-14.1 5.9l-485.8 490.2c-6.2 6.2-7.4 15.9-2.9 23.5l0.1 0.3 512.6-517.2c-3.1-1.8-6.5-2.7-9.9-2.7m79.3 54.5l-529.6 534.3q5.1 5.4 10.5 10.5l529.7-534.4q-5.2-5.3-10.6-10.4m-181.4-94.3c-5.3 0-10.4 2.2-14.2 6l-423.9 427.7c-4.8 4.8-6.9 11.7-5.4 18.3q0.8 3.3 1.6 6.6l452.5-456.6q-3.2-0.8-6.5-1.5-2.1-0.5-4.1-0.5"/></svg>