<svg version="1.2" xmlns="http://www.w3.org/2000/svg" viewBox="0 0 311 95" width="311" height="95"><style>.a{fill:#fff}</style><path fill-rule="evenodd" class="a" d="m89.6 25.9l6.9 55.4-55.3 13.5-6.9-55.3zm-66.4 13.5l7 55.4-23.2-14.8-7-55.4zm5.6-11.1l-23.2-14.8 55.2-13.6 23.2 14.9zm107.8 21.6q1.2 2.6 1.2 7 0 7.2-2.2 10.9-2.1 3.6-7.7 3.6h-12.2v-44.8h12.2q4.9 0 7.1 2.4 2.3 2.4 2.3 7.8v2q0 6.4-4.6 7.7 2.8 0.7 3.9 3.4zm-12.1-6.5h1.8q1.2 0 1.6-0.8 0.4-0.9 0.4-2.4v-4.5q0-2.2-1.9-2.2h-1.9zm4.4 11.1q0-2-0.6-3-0.6-1.1-2.1-1.1h-1.7v13l0.9 0.1q3.5 0 3.5-3.4zm30.8-25.5q2.8 3 2.8 8.8v21.3q0 6.1-2.8 9.4-2.8 3.3-8.2 3.3-5.5 0-8.3-3.3-2.8-3.4-2.8-9.4v-21.3q0-5.8 2.8-8.8 2.8-2.9 8.3-2.9 5.4 0 8.2 2.9zm-6.2 8.6q0-1.4-0.4-2.4-0.4-0.9-1.6-0.9-2.2 0-2.2 3.4v21.9q0 1.9 0.4 2.9 0.5 1 1.8 1 1.2 0 1.6-1 0.4-1.1 0.4-3zm30.4 10l4.8 23.8h-9l-2.9-17.6-2.8 17.6h-9.2l4.8-23.8-3.8-21.1h8.8l2.3 15.4 2.1-15.4h8.8zm6-21.1h19.6v8.6h-5.3v36.3h-9v-36.3h-5.3zm39.6 21.5q2.1 0.4 3 2 0.9 1.7 0.9 4.4l-0.1 17h-8.8v-17.5q0-1.9-0.7-2.4-0.7-0.6-2.7-0.6v20.5h-9.1v-44.9h13.8q3.3 0 5.1 1.5 1.8 1.5 2.5 4.2 0.6 2.7 0.6 6.9 0 3.8-1 5.9-1 2.2-3.5 3zm-4.3-8.9q0-1.8-0.2-2.7-0.1-0.9-0.5-1.2-0.4-0.4-1.2-0.4h-2.1v8.3h2.1q1.9 0 1.9-4zm30.7-10q2.8 2.9 2.8 8.7v21.4q0 6-2.8 9.3-2.8 3.3-8.2 3.3-5.5 0-8.3-3.3-2.8-3.3-2.8-9.3v-21.4q0-5.8 2.8-8.7 2.8-3 8.3-3 5.4 0 8.2 3zm-6.2 8.6q0-1.5-0.4-2.4-0.4-0.9-1.6-0.9-2.2 0-2.2 3.4v21.9q0 1.9 0.4 2.9 0.5 1 1.8 1 1.2 0 1.6-1.1 0.4-1 0.4-2.9zm26-11.1h8.7v44.8h-8.8l-4.5-22.4v22.4h-8.8v-44.8h9.3l4.1 21.4zm23.4 18.8h11v26.1h-3.6l-1.5-3.8q-2.4 4.2-7.4 4.2-4.9 0-7.3-3.4-2.3-3.4-2.3-10.4v-19.3q0-6.2 2.7-9.4 2.8-3.2 8.3-3.2 4.4 0 6.9 1.8 2.4 1.8 3.4 5.2 0.9 3.4 0.9 8.7h-8.8v-4q0-1.7-0.4-2.5-0.4-0.9-1.6-0.9-2.6 0-2.6 3.3v21.7q0 2.1 0.6 3.1 0.5 1.1 1.8 1.1 1.3 0 1.8-1.1 0.5-1 0.5-3.1v-6.4h-2.4z"/></svg>